<svg width="14" height="14" viewBox="0 0 14 14" fill="none" xmlns="http://www.w3.org/2000/svg">
<path d="M4.66667 7C4.66667 6.3559 4.89453 5.80599 5.35026 5.35026C5.80599 4.89453 6.3559 4.66667 7 4.66667C7.6441 4.66667 8.19401 4.89453 8.64974 5.35026C9.10547 5.80599 9.33333 6.3559 9.33333 7C9.33333 7.6441 9.10547 8.19401 8.64974 8.64974C8.19401 9.10547 7.6441 9.33333 7 9.33333C6.3559 9.33333 5.80599 9.10547 5.35026 8.64974C4.89453 8.19401 4.66667 7.6441 4.66667 7ZM3.40885 7C3.40885 7.99653 3.75825 8.84418 4.45703 9.54297C5.15582 10.2418 6.00347 10.5911 7 10.5911C7.99653 10.5911 8.84418 10.2418 9.54297 9.54297C10.2418 8.84418 10.5911 7.99653 10.5911 7C10.5911 6.00347 10.2418 5.15582 9.54297 4.45703C8.84418 3.75825 7.99653 3.40885 7 3.40885C6.00347 3.40885 5.15582 3.75825 4.45703 4.45703C3.75825 5.15582 3.40885 6.00347 3.40885 7ZM2.42448 3.26302C2.42448 3.49392 2.50651 3.69141 2.67057 3.85547C2.83464 4.01953 3.03212 4.10156 3.26302 4.10156C3.49392 4.10156 3.69141 4.01953 3.85547 3.85547C4.01953 3.69141 4.10156 3.49392 4.10156 3.26302C4.10156 3.03212 4.01953 2.83464 3.85547 2.67057C3.69141 2.50651 3.49392 2.42448 3.26302 2.42448C3.03212 2.42448 2.83464 2.50651 2.67057 2.67057C2.50651 2.83464 2.42448 3.03212 2.42448 3.26302ZM7 1.25781C7.04253 1.25781 7.27496 1.25629 7.69727 1.25326C8.11957 1.25022 8.4401 1.25022 8.65885 1.25326C8.8776 1.25629 9.17079 1.26541 9.53841 1.2806C9.90603 1.29579 10.219 1.32617 10.4772 1.37174C10.7355 1.41732 10.9527 1.47352 11.1289 1.54036C11.4327 1.66189 11.7001 1.83811 11.931 2.06901C12.1619 2.29991 12.3381 2.56727 12.4596 2.87109C12.5265 3.04731 12.5827 3.26454 12.6283 3.52279C12.6738 3.78103 12.7042 4.09397 12.7194 4.46159C12.7346 4.82921 12.7437 5.1224 12.7467 5.34115C12.7498 5.5599 12.7498 5.88043 12.7467 6.30273C12.7437 6.72504 12.7422 6.95747 12.7422 7C12.7422 7.04253 12.7437 7.27496 12.7467 7.69727C12.7498 8.11957 12.7498 8.4401 12.7467 8.65885C12.7437 8.8776 12.7346 9.17079 12.7194 9.53841C12.7042 9.90603 12.6738 10.219 12.6283 10.4772C12.5827 10.7355 12.5265 10.9527 12.4596 11.1289C12.3381 11.4327 12.1619 11.7001 11.931 11.931C11.7001 12.1619 11.4327 12.3381 11.1289 12.4596C10.9527 12.5265 10.7355 12.5827 10.4772 12.6283C10.219 12.6738 9.90603 12.7042 9.53841 12.7194C9.17079 12.7346 8.8776 12.7437 8.65885 12.7467C8.4401 12.7498 8.11957 12.7498 7.69727 12.7467C7.27496 12.7437 7.04253 12.7422 7 12.7422C6.95747 12.7422 6.72504 12.7437 6.30273 12.7467C5.88043 12.7498 5.5599 12.7498 5.34115 12.7467C5.1224 12.7437 4.82921 12.7346 4.46159 12.7194C4.09397 12.7042 3.78103 12.6738 3.52279 12.6283C3.26454 12.5827 3.04731 12.5265 2.87109 12.4596C2.56727 12.3381 2.29991 12.1619 2.06901 11.931C1.83811 11.7001 1.66189 11.4327 1.54037 11.1289C1.47352 10.9527 1.41732 10.7355 1.37175 10.4772C1.32617 10.219 1.29579 9.90603 1.2806 9.53841C1.26541 9.17079 1.25629 8.8776 1.25326 8.65885C1.25022 8.4401 1.25022 8.11957 1.25326 7.69727C1.25629 7.27496 1.25781 7.04253 1.25781 7C1.25781 6.95747 1.25629 6.72504 1.25326 6.30273C1.25022 5.88043 1.25022 5.5599 1.25326 5.34115C1.25629 5.1224 1.26541 4.82921 1.2806 4.46159C1.29579 4.09397 1.32617 3.78103 1.37175 3.52279C1.41732 3.26454 1.47352 3.04731 1.54037 2.87109C1.66189 2.56727 1.83811 2.29991 2.06901 2.06901C2.29991 1.83811 2.56727 1.66189 2.87109 1.54036C3.04731 1.47352 3.26454 1.41732 3.52279 1.37174C3.78103 1.32617 4.09397 1.29579 4.46159 1.2806C4.82921 1.26541 5.1224 1.25629 5.34115 1.25326C5.5599 1.25022 5.88043 1.25022 6.30273 1.25326C6.72504 1.25629 6.95747 1.25781 7 1.25781ZM0 7C0 8.39149 0.0151913 9.3546 0.0455732 9.88932C0.106337 11.1532 0.483073 12.1315 1.17578 12.8242C1.86849 13.5169 2.84679 13.8937 4.11068 13.9544C4.6454 13.9848 5.60851 14 7 14C8.39149 14 9.3546 13.9848 9.88932 13.9544C11.1532 13.8937 12.1315 13.5169 12.8242 12.8242C13.5169 12.1315 13.8937 11.1532 13.9544 9.88932C13.9848 9.3546 14 8.39149 14 7C14 5.60851 13.9848 4.6454 13.9544 4.11068C13.8937 2.84679 13.5169 1.86849 12.8242 1.17578C12.1315 0.483073 11.1532 0.106337 9.88932 0.0455729C9.3546 0.015191 8.39149 0 7 0C5.60851 0 4.6454 0.015191 4.11068 0.0455729C2.84679 0.106337 1.86849 0.483073 1.17578 1.17578C0.483073 1.86849 0.106337 2.84679 0.0455732 4.11068C0.0151913 4.6454 0 5.60851 0 7Z" fill="#1A192B"/>
</svg>
