<svg width="14" height="14" viewBox="0 0 14 14" fill="none" xmlns="http://www.w3.org/2000/svg">
<path d="M3.18099 4.54905V14H0.173177V4.54905H3.18099ZM3.3724 1.63079C3.37847 2.09491 3.22504 2.48274 2.91211 2.79428C2.59918 3.10581 2.1875 3.26158 1.67708 3.26158H1.65885C1.16059 3.26158 0.759549 3.10581 0.455729 2.79428C0.15191 2.48274 0 2.09491 0 1.63079C0 1.16031 0.156467 0.77089 0.469401 0.462534C0.782335 0.154178 1.19097 0 1.69531 0C2.19965 0 2.60373 0.154178 2.90755 0.462534C3.21137 0.77089 3.36632 1.16031 3.3724 1.63079ZM14 8.58311V14H11.0013V8.9455C11.0013 8.27793 10.8783 7.75499 10.6322 7.3767C10.3861 6.99841 10.0017 6.80926 9.47917 6.80926C9.09635 6.80926 8.77582 6.91894 8.51758 7.13828C8.25933 7.35763 8.06641 7.62943 7.9388 7.95368C7.87196 8.14441 7.83854 8.40191 7.83854 8.72616V14H4.83984C4.852 11.4632 4.85807 9.40645 4.85807 7.8297C4.85807 6.25295 4.85503 5.31199 4.84896 5.00681L4.83984 4.54905H7.83854V5.92234H7.82031C7.94184 5.71889 8.06641 5.54087 8.19401 5.38828C8.32161 5.23569 8.49327 5.07039 8.70898 4.89237C8.9247 4.71435 9.18902 4.57607 9.50195 4.47752C9.81489 4.37897 10.1628 4.3297 10.5456 4.3297C11.5846 4.3297 12.4201 4.69051 13.0521 5.41213C13.684 6.13374 14 7.19074 14 8.58311Z" fill="#1A192B"/>
</svg>
